<?xml version="1.0" encoding="utf-8"?>
<svg viewBox="0 0 64 64" xmlns="http://www.w3.org/2000/svg">
  <path d="M 31.964 0 C 14.289 0 0 14.62 0 32.706 C 0 47.163 9.155 59.401 21.856 63.733 C 23.444 64.058 24.025 63.029 24.025 62.163 C 24.025 61.405 23.973 58.806 23.973 56.098 C 15.082 58.048 13.23 52.199 13.23 52.199 C 11.801 48.409 9.684 47.434 9.684 47.434 C 6.774 45.431 9.896 45.431 9.896 45.431 C 13.124 45.648 14.818 48.788 14.818 48.788 C 17.675 53.769 22.279 52.362 24.131 51.495 C 24.396 49.383 25.243 47.922 26.143 47.109 C 19.051 46.351 11.59 43.536 11.59 30.973 C 11.59 27.399 12.859 24.475 14.87 22.201 C 14.553 21.389 13.441 18.031 15.188 13.537 C 15.188 13.537 17.887 12.67 23.972 16.894 C 26.578 16.178 29.265 15.814 31.964 15.811 C 34.663 15.811 37.414 16.19 39.954 16.894 C 46.04 12.67 48.739 13.537 48.739 13.537 C 50.486 18.031 49.374 21.389 49.056 22.201 C 51.121 24.475 52.338 27.399 52.338 30.973 C 52.338 43.536 44.876 46.297 37.732 47.109 C 38.896 48.138 39.901 50.087 39.901 53.174 C 39.901 57.56 39.849 61.08 39.849 62.162 C 39.849 63.029 40.431 64.058 42.018 63.733 C 54.719 59.401 63.874 47.163 63.874 32.706 C 63.927 14.62 49.586 0 31.964 0 Z" style=""/>
</svg>