<?xml version="1.0" encoding="utf-8"?>
<svg version="1.0" width="400.000000pt" height="401.000000pt" viewBox="0 0 400.000000 401.000000" preserveAspectRatio="xMidYMid meet" xmlns="http://www.w3.org/2000/svg">
  <g transform="matrix(0.156278, 0, 0, -0.11746, -116.797287, 427.998535)" fill="#000000" stroke="none" style="">
    <path d="M 1539 3212 C 1503 3202 1443 3177 1404 3155 C 1366 3133 1313 3104 1285 3090 C 1257 3076 1198 3028 1149 2980 C 1074 2905 1057 2881 1008 2780 C 964 2691 942 2628 910 2500 C 887 2409 849 2261 825 2170 C 802 2079 777 1980 770 1949 L 758 1893 L 936 1678 C 1369 1158 1686 777 1701 760 C 1726 731 1892 700 2061 693 C 2367 681 2593 754 2778 926 C 2932 1068 3020 1236 3089 1519 C 3119 1643 3139 1685 3155 1659 C 3160 1651 3148.202 1673.115 3141.202 1678.115 C 3119.202 1691.115 3169 1605 3181 1586 C 3193 1566 3203 1550 3203 1550 C 3204 1550 3206 1561 3206 1575 C 3207 1591 3216.842 1739.13 3208.842 1734.13 C 3202.842 1731.13 3190 1592 3198 1601 C 3205 1609 3204.244 1643.362 3210 1689 C 3220.367 1771.195 3213.349 1767.083 3248 1803 L 3285 1841 L 3248.45 1884.885 C 3226.45 1904.885 3199.419 1952.828 3190.419 1966.828 C 3108.758 2173.215 3155.854 2046.996 3151.254 2030.63 C 3147.202 2016.216 3161.905 1980.362 3213.201 1884.977 L 3265 1840 C 3265 1840 3206.647 1810.765 3208.275 1810.765 C 3161.325 1787.885 3190.225 1779.53 3190.225 1701.53 C 3190.225 1612.53 3193 1606 3159 1671 C 3148 1693 3116.514 1757.176 3109.649 1769.54 C 3086.755 1810.772 3084.27 1754.73 3041.031 1723.503 C 2980.121 1679.515 2942 1653 2915 1657 C 2891 1661 2883 1667 2887 1677 C 2890 1684 2907.806 1688.686 2927 1715 C 2975.644 1781.686 3076.226 1831.129 3066.627 1841.352 C 3062.329 1845.93 3049.544 1865.866 3039.938 1883.286 C 3034.878 1891.599 3003.68 1937.181 3006.579 1933.481 C 3015.415 1921.17 2981.609 1962.255 2954 1996 C 2923.941 2032.738 2960.402 2042.47 3022 2005 C 3092.532 1962.095 3110.383 1930.467 3105 2053 C 3102.056 2120.01 3114.393 2143.031 3134.874 2043.795 C 3142.673 2006.007 3216.272 1873.339 3215.988 1885.589 C 3216.988 1913.589 3132 2123 3109 2159 C 3094 2184 3086 2190 3080 2180 C 3075 2172 3057 2197 3027 2256 C 3003 2305 2974 2359 2965 2375 C 2947 2406 2948 2408 3012 2645 C 3059 2815 3074 2887 3066 2892 C 3049 2904 2693 2901 2602 2889 L 2522 2878 L 2423 2949 C 2119 3168 1769 3272 1539 3212 Z M 1941 3055 C 2070 3033 2209 2978 2379 2883 L 2443 2847 L 2400 2810 L 2356 2772 L 2342 2798 C 2324 2835 2300 2860 2270 2875 C 2242 2889 1713 2905 1695 2892 C 1689 2888 1671 2838 1656 2780 C 1610 2613 1611 2615 1588 2680 C 1563 2751 1553 2875 1570 2924 C 1610 3046 1737 3091 1941 3055 Z M 1414 2925 C 1422 2865 1502 2697 1558 2622 L 1598 2569 L 1574 2484 C 1556 2416 1553 2393 1562 2372 C 1568 2357 1574 2350 1576 2355 C 1578 2361 1597 2433 1620 2515 C 1642 2598 1672 2709 1687 2763 L 1713 2860 L 1957 2860 C 2275 2860 2293 2853 2292 2729 C 2292 2653 2137 2072 2097 1993 C 2071 1943 2002 1891 1932 1870 C 1877 1853 1839 1850 1653 1850 C 1485 1850 1439 1853 1442 1863 C 1445 1869 1464 1938 1485 2015 C 1505 2092 1526 2159 1531 2164 C 1536 2170 1561 2167 1595 2158 L 1651 2142 L 1632 2164 C 1503 2306 1396 2469 1353 2588 C 1319 2678 1311 2816 1334 2886 C 1350 2936 1395.487 2979.986 1408.487 2967.986 C 1412.487 2963.986 1407.991 2966 1404.991 2980 C 1399.991 2997 1392 3000 1398 2990 C 1403 2982 1410 2953 1414 2925 Z M 3010 2848 C 3010 2841 2992 2768 2970 2685 C 2947 2603 2925 2518 2919 2498 L 2909 2460 L 2780 2460 C 2708 2460 2650 2464 2650 2468 C 2650 2497 2714 2700 2731 2723 L 2751 2750 L 2729 2750 C 2689 2750 2640 2718 2615 2676 C 2602 2654 2552 2496 2505 2325 C 2458 2155 2410 2003 2399 1988 L 2379 1960 L 2406 1960 C 2447 1960 2499 1990 2517 2024 C 2526 2041 2550 2114 2571 2185 L 2608 2315 L 2740 2318 C 2862 2320 2871 2319 2866 2303 C 2863 2293 2849 2243 2835 2192 C 2792 2037 2772 1993 2720 1941 C 2642 1863 2603 1850 2448 1850 L 2317 1850 L 2233 1897 C 2188 1923 2150 1950 2150 1957 C 2150 1985 2281 2482 2322 2610 C 2363 2736 2426 2798 2560 2841 C 2605 2856 2652 2859 2813 2859 C 2964 2860 3010 2857 3010 2848 Z M 1075 2536 C 1062 2478 1020 2207 1023 2204 C 1025 2201 1046 2255 1070 2322 C 1130 2494 1122 2484 1170 2439 L 1210 2401 L 1140 2119 C 1101 1964 1071 1836 1072 1834 C 1074 1833 1116 1946 1165 2086 C 1214 2226 1256 2340 1259 2340 C 1262 2339 1281 2318 1301 2292 L 1338 2245 L 1289 1955 C 1262 1795 1241 1661 1241 1655 C 1241 1650 1273 1766 1311 1914 C 1349 2062 1381 2184 1383 2186 C 1384 2188 1403 2168 1424 2142 C 1458 2100 1461 2091 1456 2054 C 1448 1993 1431 1953 1420 1970 C 1411 1984 1411 1983 1372 1828 C 1356 1764 1355 1750 1366 1746 C 1374 1743 1387 1751 1396 1765 C 1411 1788 1419 1790 1486 1790 C 1527 1790 1560 1788 1560 1785 C 1560 1782 1551 1727 1539 1664 C 1528 1601 1520 1544 1522 1539 C 1524 1534 1545 1588 1569 1660 L 1613 1790 L 1666 1790 C 1718 1790 1719 1789 1765 1733 C 1807 1680 1811 1671 1806 1634 C 1803 1612 1796 1581 1790 1565 L 1779 1536 L 1755 1565 C 1742 1582 1730 1593 1727 1590 C 1722 1584 1690 1456 1690 1441 C 1690 1436 1701 1418 1715 1401 L 1741 1371 L 1724 1304 L 1707 1236 L 1678 1270 C 1663 1289 1650 1302 1650 1298 C 1650 1295 1641 1257 1631 1215 L 1611 1137 L 1636 1108 C 1649 1092 1660 1071 1660 1062 C 1660 1047 1646 985 1634 952 C 1629 936 1520 1065 1520 1087 C 1520 1095 1550 1219 1586 1362 C 1622 1505 1650 1624 1648 1625 C 1646 1627 1607 1524 1562 1397 C 1516 1269 1475 1159 1471 1151 C 1460 1135 1400 1209 1400 1239 C 1400 1250 1413 1341 1430 1442 C 1466 1662 1467 1677 1441 1634 C 1430 1616 1416 1600 1410 1598 C 1402 1596 1392 1537 1381 1435 C 1372 1347 1362 1275 1359 1275 C 1356 1275 1341 1289 1327 1306 L 1301 1337 L 1315 1456 C 1340 1654 1329 1673 1289 1503 C 1278 1455 1265 1410 1261 1403 C 1257 1395 1234 1416 1199 1460 L 1143 1528 L 1153 1588 C 1161 1640 1160 1651 1144 1674 C 1133 1688 1123 1700 1120 1700 C 1117 1700 1108 1680 1101 1655 C 1094 1630 1085 1610 1081 1610 C 1074 1610 1005 1689 979 1727 C 965 1748 966 1759 997 1877 C 1037 2034 1038 2049 1000 1945 C 931 1759 939 1774 920 1797 C 904 1817 904 1825 922 1936 C 932 2001 939 2058 937 2064 C 935 2070 921 2023 905 1961 L 877 1847 L 849 1881 C 833 1900 820 1922 820 1931 C 820 1945 953 2482 986 2598 L 1001 2651 L 1040 2604 C 1066 2572 1078 2549 1075 2536 Z M 2963 2270 C 2993 2202 3020 2105 3020 2066 C 3020 2045 3016 2041 2998 2043 C 2985 2044 2978.966 2046.214 2968.071 2049.285 C 2965.071 2054.285 2936.427 2056.891 2910.963 2062.071 C 2885.499 2067.251 2884.217 2074.933 2876.929 2070.574 C 2900.829 2061.164 2875 2080 2869 2082 C 2857 2086 2917 2330 2930 2330 C 2934 2330 2949 2303 2963 2270 Z M 2873.607 2033.77 C 2878.607 2023.77 2918.677 1997.676 2929.214 1987 C 2934.149 1982 2947.524 1963.837 2948.787 1961.908 C 2968.801 1931.333 3062.11 1853.171 2975.475 1809.836 C 2937.409 1790.795 2915.445 1763.887 2871 1756 C 2802.281 1743.805 2683.234 1734.299 2590 1755 C 2489.292 1777.361 2477 1786 2539 1793 C 2659 1807 2783 1898 2826 2004 C 2846 2052 2857.607 2061.77 2873.607 2033.77 Z M 2256 1844 C 2409 1741 2580 1657 2692 1628 C 2804 1600 2935 1605 3007 1641 C 3070 1672 3066 1656 3001 1612 C 2870 1522 2699 1518 2455 1598 C 2367 1626 2149 1734 2056 1794 L 1997 1832 L 2027 1846 C 2044 1855 2072 1877 2091 1896 C 2109 1915 2125 1930 2126 1930 C 2127 1930 2185 1891 2256 1844 Z M 1861 1615 L 1887 1581 L 1811 1281 L 1735 981 L 1762 953 L 1789 925 L 1772 856 L 1754 787 L 1697 858 L 1639 928 L 1731 1289 C 1782 1488 1826 1650 1829 1650 C 1832 1649 1847 1634 1861 1615 Z"/>
    <path d="M1929 2731 c8 -14 -9 -89 -70 -312 -93 -343 -116 -418 -137 -441 -14 -17 -13 -18 11 -18 74 0 109 37 146 155 25 77 136 484 155 567 9 40 -22 68 -74 68 -37 0 -40 -2 -31 -19z"/>
    <path d="M1196 1937 c-41 -131 -41 -130 -22 -147 12 -9 16 -5 21 27 4 21 15 81 25 133 10 52 17 97 15 98 -2 2 -19 -48 -39 -111z"/>
  </g>
</svg>