<?xml version="1.0" encoding="utf-8"?>
<svg version="1.0" width="194.000000pt" height="194.000000pt" viewBox="0 0 194.000000 194.000000" preserveAspectRatio="xMidYMid meet" xmlns="http://www.w3.org/2000/svg">
  <g transform="matrix(0.1, 0, 0, -0.1, 0, 194)" fill="#000000" stroke="none">
    <path d="M0 970 l0 -970 970 0 970 0 0 970 0 970 -970 0 -970 0 0 -970z m850 796 c0 -12 121 -791 123 -793 2 -1 22 118 45 265 24 147 52 327 64 400 l21 132 179 0 178 0 0 -790 0 -790 -140 0 -140 0 0 367 c0 201 -2 364 -5 361 -3 -3 -30 -158 -60 -344 -31 -186 -58 -349 -61 -361 -4 -21 -10 -23 -78 -23 -73 0 -75 0 -80 27 -3 16 -30 178 -61 362 -30 184 -58 337 -60 340 -3 2 -5 -161 -5 -362 l0 -367 -140 0 -140 0 0 790 0 790 180 0 c99 0 180 -2 180 -4z" style="fill: rgb(236, 29, 36);"/>
  </g>
</svg>